<svg width="24" height="24" viewBox="0 0 24 24" fill="none" xmlns="http://www.w3.org/2000/svg">
<path d="M6.92188 12.0098C6.92188 11.6445 7.06868 11.3151 7.3623 11.0215L13.7969 4.65137C14.0404 4.41504 14.3304 4.29688 14.667 4.29688C15.0179 4.29688 15.3115 4.41504 15.5479 4.65137C15.7913 4.89486 15.9131 5.19206 15.9131 5.54297C15.9131 5.87956 15.7842 6.18034 15.5264 6.44531L9.46777 12.418V11.6016L15.5264 17.5635C15.7842 17.8285 15.9131 18.1292 15.9131 18.4658C15.9131 18.8096 15.7913 19.0996 15.5479 19.3359C15.3115 19.5794 15.0179 19.7012 14.667 19.7012C14.3232 19.7012 14.0332 19.583 13.7969 19.3467L7.3623 12.9873C7.07585 12.708 6.92904 12.3822 6.92188 12.0098Z" fill="#323232"/>
</svg>
